#N canvas 32 32 450 300 12;
#X obj 112 84 inlet;
#X obj 112 158 -;
#X obj 112 182 outlet;
#X obj 177 83 inlet;
#X obj 177 107 t b f;
#X connect 0 0 1 0;
#X connect 1 0 2 0;
#X connect 3 0 4 0;
#X connect 4 0 1 0;
#X connect 4 1 1 1;
