#N canvas 224 224 450 300 12;
#X obj 91 50 inlet;
#X obj 91 111 spigot 1;
#X obj 91 135 outlet;
#X obj 181 111 spigot 1;
#X obj 181 135 outlet;
#X obj 234 33 inlet;
#X obj 234 87 == 1;
#X obj 144 85 == 0;
#X connect 0 0 1 0;
#X connect 0 0 3 0;
#X connect 1 0 2 0;
#X connect 3 0 4 0;
#X connect 5 0 6 0;
#X connect 5 0 7 0;
#X connect 6 0 3 1;
#X connect 7 0 1 1;
