#N canvas 686 281 450 300 12;
#X obj 123 136 t b f;
#X obj 123 161 f;
#X obj 178 164 +;
#X obj 178 189 clip 0 127;
#X obj 128 15 inlet;
#X obj 131 245 outlet;
#X obj 267 40 loadbang;
#X msg 267 65 args;
#X obj 267 90 pdcontrol;
#X obj 267 115 route float list;
#X obj 259 155 unpack f f;
#X connect 0 0 1 0;
#X connect 0 1 2 1;
#X connect 1 0 2 0;
#X connect 1 0 5 0;
#X connect 2 0 3 0;
#X connect 3 0 1 1;
#X connect 4 0 0 0;
#X connect 6 0 7 0;
#X connect 7 0 8 0;
#X connect 8 0 9 0;
#X connect 9 0 3 2;
#X connect 9 1 10 0;
#X connect 10 0 3 1;
#X connect 10 1 3 2;
