#N canvas 908 400 450 300 12;
#X obj 105 136 array get \$1;
#X obj 104 212 print -n;
#X obj 104 160 list prepend \$1:;
#X obj 105 15 inlet;
#X obj 105 40 route bang symbol;
#X obj 104 185 list trim;
#X obj 154 98 t b s;
#X msg 213 133 \$1:;
#X connect 0 0 2 0;
#X connect 2 0 5 0;
#X connect 3 0 4 0;
#X connect 4 0 0 0;
#X connect 4 1 6 0;
#X connect 5 0 1 0;
#X connect 6 0 0 0;
#X connect 6 1 0 2;
#X connect 6 1 7 0;
#X connect 7 0 2 1;
