#N canvas 146 125 725 546 12;
#X obj 42 31 inlet~;
#X obj 41 99 writesf~;
#X obj 279 42 r rec\$0;
#X obj 279 67 sel 1 0;
#X obj 256 98 t b b;
#N canvas 974 227 450 343 input 0;
#X obj 86 30 inlet;
#X obj 86 100 b;
#X obj 86 125 tgl 20 0 empty empty empty 0 -10 0 12 #fcfcfc #000000 #000000 0 1;
#X obj 86 150 s rec\$0;
#X msg 213 125 0;
#X obj 213 150 s phase\$0;
#X obj 146 115 t f b;
#X obj 146 150 s play\$0;
#X obj 207 87 s lvl\$0;
#X obj 86 55 route rec play level loop, f 35;
#X obj 178 190 spigot;
#X obj 178 215 delay;
#X obj 282 246 r dur\$0;
#X obj 289 150 tgl 20 0 empty empty empty 0 -10 0 12 #fcfcfc #000000 #000000 0 1;
#X msg 178 240 0;
#X obj 289 195 sel 1;
#X msg 289 220 stop;
#X connect 0 0 9 0;
#X connect 1 0 2 0;
#X connect 2 0 3 0;
#X connect 4 0 5 0;
#X connect 6 0 7 0;
#X connect 6 1 4 0;
#X connect 6 1 10 0;
#X connect 9 0 1 0;
#X connect 9 1 6 0;
#X connect 9 2 8 0;
#X connect 9 3 13 0;
#X connect 10 0 11 0;
#X connect 11 0 14 0;
#X connect 12 0 11 1;
#X connect 13 0 10 1;
#X connect 13 0 15 0;
#X connect 14 0 7 0;
#X connect 15 0 16 0;
#X connect 16 0 11 0;
#X restore 90 60 pd input;
#X obj 256 123 \$0;
#X msg 256 148 open /tmp/\$1-rec.wav;
#X msg 272 204 start;
#X msg 289 178 stop;
#X obj 319 99 t b b;
#X obj 377 190 timer;
#X obj 395 246 / 3;
#X obj 377 351 soundfiler;
#X obj 377 299 \$0;
#X obj 500 204 table \$0buffer;
#X msg 377 324 read -resize /tmp/\$1-rec.wav \$1buffer;
#X obj 44 251 phasor~;
#X obj 45 457 *~;
#X obj 45 482 outlet~;
#X obj 181 464 r lvl\$0;
#X obj 181 489 lop~ 50;
#X obj 104 225 r phase\$0;
#X obj 44 200 r rate\$0;
#X obj 44 225 lop~ 50;
#X obj 44 433 *~;
#X obj 182 411 r play\$0;
#X obj 182 437 lop~ 50;
#X obj 377 378 s smp-length\$0;
#X obj 377 273 del;
#X msg 423 412 1000 \$1;
#X obj 423 437 s rate\$0;
#X obj 437 254 s dur\$0;
#X obj 43 409 tabread4~ \$0buffer;
#X text 418 24 ** WORK IN PROGRESS ** \; this playhead distorts long files \; altough we still want flexibility \; one solution is to apply onset at 2nd inlet of tabread4~ \; that takes off some flexibility \, but gives reading accuracy \; probably better than just using readsf~ \;, f 35;
#X obj 377 215 t b f f;
#N canvas 451 316 450 300 varispeed 0;
#X obj 77 23 inlet~;
#X obj 166 24 r smp-length\$0;
#X obj 166 49 >;
#X connect 1 0 2 0;
#X restore 103 321 pd varispeed;
#X connect 0 0 1 0;
#X connect 0 1 5 0;
#X connect 2 0 3 0;
#X connect 3 0 4 0;
#X connect 3 1 10 0;
#X connect 4 0 6 0;
#X connect 4 1 8 0;
#X connect 4 1 11 0;
#X connect 6 0 7 0;
#X connect 7 0 1 0;
#X connect 8 0 1 0;
#X connect 9 0 1 0;
#X connect 10 0 9 0;
#X connect 10 1 11 1;
#X connect 11 0 35 0;
#X connect 12 0 29 1;
#X connect 13 0 28 0;
#X connect 14 0 16 0;
#X connect 16 0 13 0;
#X connect 18 0 19 0;
#X connect 20 0 21 0;
#X connect 21 0 18 1;
#X connect 22 0 17 1;
#X connect 23 0 24 0;
#X connect 24 0 17 0;
#X connect 25 0 18 0;
#X connect 26 0 27 0;
#X connect 27 0 25 1;
#X connect 29 0 14 0;
#X connect 30 0 31 0;
#X connect 33 0 25 0;
#X connect 35 0 29 0;
#X connect 35 1 12 0;
#X connect 35 2 30 0;
#X connect 35 2 32 0;
