#N canvas 64 64 450 300 12;
#X obj 148 92 * 8;
#X obj 148 116 i;
#X obj 148 164 * 8;
#X obj 148 213 trail, f 6;
#X msg 148 237 \$1 5;
#X obj 148 263 noteout;
#X msg 196 237 \$1 0;
#X obj 148 140 change;
#X obj 148 67 inlet;
#X obj 148 188 + \$1;
#X connect 0 0 1 0;
#X connect 1 0 7 0;
#X connect 2 0 9 0;
#X connect 3 0 4 0;
#X connect 3 1 6 0;
#X connect 4 0 5 0;
#X connect 6 0 5 0;
#X connect 7 0 2 0;
#X connect 8 0 0 0;
#X connect 9 0 3 0;
