#N canvas 192 192 450 520 12;
#X obj 124 183 env~;
#X obj 124 207 / 100;
#X obj 124 301 lop~ 10;
#X obj 124 230 pow 2;
#X obj 124 325 outlet~;
#X obj 124 69 inlet~;
#X obj 194 142 route fall gain;
#X obj 192 256 lop~ 5;
#X obj 124 264 *~;
#X obj 276 199 loadbang;
#X msg 276 223 1;
#X connect 0 0 1 0;
#X connect 1 0 3 0;
#X connect 2 0 4 0;
#X connect 3 0 8 0;
#X connect 5 0 0 0;
#X connect 5 1 6 0;
#X connect 6 1 3 1;
#X connect 6 2 7 0;
#X connect 7 0 8 1;
#X connect 8 0 2 0;
#X connect 9 0 10 0;
#X connect 10 0 7 0;
