#N canvas 64 64 412 383 12;
#X obj 106 58 notein;
#X obj 52 106 stripnote;
#X obj 52 130 limit 64;
#X obj 52 154 t f f, f 8;
#X obj 52 178 div 8;
#X obj 261 22 table last-row 8;
#X obj 117 238 tabwrite last-row, f 8;
#X obj 52 280 outlet;
#X obj 105 280 outlet;
#X obj 52 202 t f f;
#X obj 105 202 t f f;
#X obj 261 46 table pressed 64;
#X obj 135 106 swap;
#X obj 234 159 tabwrite pressed, f 8;
#X obj 314 172 ctlin;
#X obj 330 199 - 48;
#X obj 314 227 swap;
#X obj 311 281 s faders;
#X obj 314 255 pack;
#X obj 105 178 % 8;
#X obj 210 280 outlet;
#X obj 210 206 pack;
#X obj 210 230 route 0;
#X msg 210 254 \$1 0;
#X obj 234 98 / 127;
#X connect 0 0 1 0;
#X connect 0 0 12 0;
#X connect 0 1 1 1;
#X connect 0 1 12 1;
#X connect 1 0 2 0;
#X connect 2 0 3 0;
#X connect 3 0 4 0;
#X connect 3 1 19 0;
#X connect 4 0 9 0;
#X connect 9 0 7 0;
#X connect 9 1 6 0;
#X connect 10 0 8 0;
#X connect 10 1 6 1;
#X connect 12 0 21 0;
#X connect 12 0 24 0;
#X connect 12 1 13 1;
#X connect 12 1 21 1;
#X connect 14 0 16 0;
#X connect 14 1 15 0;
#X connect 15 0 16 1;
#X connect 16 0 18 0;
#X connect 16 1 18 1;
#X connect 18 0 17 0;
#X connect 19 0 10 0;
#X connect 21 0 22 0;
#X connect 22 0 23 0;
#X connect 23 0 20 0;
#X connect 24 0 13 0;
