#N canvas 155 59 737 583 12;
#X obj 61 43 notein 1, f 9;
#X obj 554 56 table grid-state 64;
#X obj 553 31 table side-pads 17;
#X obj 267 68 inlet;
#X text 265 49 punch-in;
#X text 537 86 states \; 0 - empty \; 1 - idle \; 2 - cueing-stop \; 3 - recording \; 4 - cueing-rec \; 5 - playing \; 6 - cueing-play \; 7 - cueing-stoprec \;;
#X obj 61 68 limit 64;
#X obj 61 195 tabread grid-state;
#X obj 415 31 table note-map 8;
#X obj 415 56 table punch-map 8;
#N canvas 867 319 560 409 fill-maps 0;
#X obj 148 31 loadbang;
#X obj 34 323 tabwrite note-map;
#X obj 227 321 tabwrite punch-map;
#X text 286 47 index = received grid state \; value = status to;
#X msg 24 228 4 6 -1 6 -1 2 -1 -1;
#X obj 47 193 t b f f;
#X obj 24 253 list split;
#X obj 34 296 f;
#X obj 294 177 t b f f;
#X msg 248 213 -1 -1 1 -1 3 -1 5 -1;
#X obj 223 250 list split;
#X obj 233 293 f;
#X obj 152 117 numseq 8;
#X connect 0 0 12 0;
#X connect 4 0 6 0;
#X connect 5 0 4 0;
#X connect 5 1 6 1;
#X connect 5 2 1 1;
#X connect 6 1 7 0;
#X connect 7 0 1 0;
#X connect 8 0 9 0;
#X connect 8 1 10 1;
#X connect 8 2 2 1;
#X connect 9 0 10 0;
#X connect 10 1 11 0;
#X connect 11 0 2 0;
#X connect 12 0 5 0;
#X connect 12 0 8 0;
#X restore 415 83 pd fill-maps;
#X obj 61 220 tabread note-map;
#X obj 61 93 stripnote;
#X obj 61 245 moses;
#X obj 61 165 t f f, f 8;
#X obj 267 188 tabread grid-state;
#X obj 267 238 moses;
#X obj 267 158 t f f, f 8;
#X obj 267 213 tabread punch-map;
#X obj 267 123 numseq 64;
#X obj 267 96 bng 20 250 50 0 empty empty empty 0 -10 0 12 #fcfcfc #000000 #000000;
#X obj 504 253 bng 20 250 50 0 empty empty empty 0 -10 0 12 #fcfcfc #000000 #000000;
#X obj 504 278 numseq 64;
#X obj 504 305 t f f;
#X obj 536 331 tabread grid-state, f 10;
#X obj 504 373 pack;
#X obj 504 398 noteout;
#X obj 190 391 tabwrite grid-state;
#X obj 93 355 swap;
#X msg 590 276 const 0;
#X obj 590 301 s grid-state;
#X obj 93 390 pack;
#X obj 26 436 noteout;
#X obj 93 436 outlet;
#X msg 556 432 symbol punch-map;
#X obj 556 492 array-print;
#X msg 566 462 symbol note-map;
#X connect 0 0 6 0;
#X connect 0 1 12 1;
#X connect 3 0 20 0;
#X connect 6 0 12 0;
#X connect 7 0 11 0;
#X connect 11 0 13 0;
#X connect 12 0 14 0;
#X connect 13 1 28 0;
#X connect 13 1 27 0;
#X connect 14 0 7 0;
#X connect 14 1 27 1;
#X connect 14 1 28 1;
#X connect 15 0 18 0;
#X connect 16 1 28 0;
#X connect 16 1 27 0;
#X connect 17 0 15 0;
#X connect 17 1 27 1;
#X connect 17 1 28 1;
#X connect 18 0 16 0;
#X connect 19 0 17 0;
#X connect 20 0 19 0;
#X connect 21 0 22 0;
#X connect 22 0 23 0;
#X connect 23 0 25 0;
#X connect 23 1 24 0;
#X connect 24 0 25 1;
#X connect 25 0 26 0;
#X connect 28 0 31 0;
#X connect 28 1 31 1;
#X connect 29 0 30 0;
#X connect 31 0 32 0;
#X connect 31 0 33 0;
#X connect 34 0 35 0;
#X connect 36 0 35 0;
