#N canvas 1256 243 427 576 12;
#X obj 21 94 inlet~;
#X obj 60 213 modulate~;
#X obj 60 237 phasor~;
#N canvas 160 160 450 300 tri 0;
#X obj 89 47 inlet~;
#X obj 64 131 *~ 2;
#X obj 64 155 -~ 1;
#X obj 80 185 max~;
#X obj 242 54 inlet;
#X obj 242 78 == 0;
#X obj 242 102 switch~;
#X obj 80 209 *~ 2;
#X obj 80 233 -~ 1;
#X obj 80 257 outlet~;
#X obj 114 131 *~ -2;
#X obj 114 155 +~ 1;
#X obj 89 76 +~ 0.5;
#X obj 89 101 wrap~;
#X connect 0 0 12 0;
#X connect 1 0 2 0;
#X connect 2 0 3 0;
#X connect 3 0 7 0;
#X connect 4 0 5 0;
#X connect 5 0 6 0;
#X connect 7 0 8 0;
#X connect 8 0 9 0;
#X connect 10 0 11 0;
#X connect 11 0 3 1;
#X connect 12 0 13 0;
#X connect 13 0 1 0;
#X connect 13 0 10 0;
#X restore 60 297 pd tri;
#N canvas 160 160 450 300 square 0;
#X obj 63 45 inlet~;
#X obj 64 151 *~ 2;
#X obj 64 175 -~ 1;
#X obj 64 223 outlet~;
#X obj 242 54 inlet;
#X obj 242 102 switch~;
#X obj 64 199 +~;
#X obj 242 78 == 1;
#X obj 114 89 +~ 0.5;
#X obj 114 113 wrap~;
#X obj 114 151 *~ -2;
#X obj 114 175 +~ 1;
#X connect 0 0 1 0;
#X connect 0 0 8 0;
#X connect 1 0 2 0;
#X connect 2 0 6 0;
#X connect 4 0 7 0;
#X connect 6 0 3 0;
#X connect 7 0 5 0;
#X connect 8 0 9 0;
#X connect 9 0 10 0;
#X connect 10 0 11 0;
#X connect 11 0 6 1;
#X restore 120 297 pd square;
#N canvas 160 160 450 300 saw 0;
#X obj 63 45 inlet~;
#X obj 242 54 inlet;
#X obj 242 102 switch~;
#X obj 64 139 outlet~;
#X obj 242 78 == 2;
#X obj 64 81 *~ -2;
#X obj 64 105 +~ 1;
#X connect 0 0 5 0;
#X connect 1 0 4 0;
#X connect 4 0 2 0;
#X connect 5 0 6 0;
#X connect 6 0 3 0;
#X restore 200 297 pd saw;
#N canvas 160 160 450 300 ramp 0;
#X obj 63 45 inlet~;
#X obj 64 81 *~ 2;
#X obj 64 105 -~ 1;
#X obj 242 54 inlet;
#X obj 242 102 switch~;
#X obj 64 139 outlet~;
#X obj 242 78 == 3;
#X connect 0 0 1 0;
#X connect 1 0 2 0;
#X connect 2 0 5 0;
#X connect 3 0 6 0;
#X connect 6 0 4 0;
#X restore 260 297 pd ramp;
#X obj 60 124 route rate reset max min waveform;
#X msg 141 189 0;
#X obj 177 361 +~ 1;
#X obj 177 385 *~ 0.5;
#X obj 177 409 *~;
#X obj 177 527 outlet~;
#X obj 291 374 --;
#X obj 291 398 lop~ 10;
#X obj 253 430 lop~ 10;
#X obj 115 58 loadbang;
#N canvas 160 160 450 300 sine 0;
#X obj 63 45 inlet~;
#X obj 242 54 inlet;
#X obj 242 102 switch~;
#X obj 64 199 outlet~;
#X obj 242 78 == 4;
#X obj 63 99 +~ 0.25;
#X obj 63 123 cos~;
#X connect 0 0 5 0;
#X connect 1 0 4 0;
#X connect 4 0 2 0;
#X connect 5 0 6 0;
#X connect 6 0 3 0;
#X restore 328 297 pd sine;
#X msg 115 82 rate 1 \, max 1 \, min 0 \, waveform 0;
#X obj 177 433 +~;
#X obj 193 481 lop~ 5000;
#X obj 60 189 line~;
#X msg 60 159 \$1 10;
#X connect 0 0 1 1;
#X connect 0 1 7 0;
#X connect 1 0 2 0;
#X connect 2 0 3 0;
#X connect 2 0 17 0;
#X connect 2 0 6 0;
#X connect 2 0 5 0;
#X connect 2 0 4 0;
#X connect 3 0 9 0;
#X connect 4 0 9 0;
#X connect 5 0 9 0;
#X connect 6 0 9 0;
#X connect 7 0 22 0;
#X connect 7 1 8 0;
#X connect 7 2 13 0;
#X connect 7 3 15 0;
#X connect 7 3 13 1;
#X connect 7 4 17 1;
#X connect 7 4 6 1;
#X connect 7 4 5 1;
#X connect 7 4 4 1;
#X connect 7 4 3 1;
#X connect 8 0 2 1;
#X connect 9 0 10 0;
#X connect 10 0 11 0;
#X connect 11 0 19 0;
#X connect 13 0 14 0;
#X connect 14 0 11 1;
#X connect 15 0 19 1;
#X connect 16 0 18 0;
#X connect 17 0 9 0;
#X connect 18 0 7 0;
#X connect 19 0 20 0;
#X connect 20 0 12 0;
#X connect 21 0 1 0;
#X connect 22 0 21 0;
