#N canvas 96 96 450 300 12;
#X obj 77 43 inlet;
#X obj 77 67 moses 0;
#X obj 123 93 moses 128;
#X obj 123 117 outlet;
#X obj 235 63 loadbang;
#X msg 235 87 args;
#X obj 235 111 pdcontrol;
#X obj 235 135 route list float;
#X obj 159 42 unpack;
#X connect 0 0 1 0;
#X connect 1 1 2 0;
#X connect 2 0 3 0;
#X connect 4 0 5 0;
#X connect 5 0 6 0;
#X connect 6 0 7 0;
#X connect 7 0 8 0;
#X connect 7 1 2 1;
#X connect 8 0 1 1;
#X connect 8 1 2 1;
