#N canvas 619 225 669 479 12;
#X obj 48 35 inlet~;
#X obj 48 119 tabwrite~ \$0buff;
#X obj 233 63 table \$0buff;
#N canvas 991 166 804 658 input 0;
#X obj 139 33 inlet;
#X obj 165 315 b;
#X obj 165 343 tgl 19 0 empty empty empty 0 -10 0 12 #fcfcfc #000000 #000000 0 1;
#X obj 165 370 sel 1 0;
#X obj 226 449 timer;
#X obj 165 401 t b b;
#X obj 215 401 t b b;
#X msg 183 450 stop;
#X obj 165 487 outlet;
#X msg 226 533 1000 \$1;
#X obj 226 557 /;
#X obj 226 581 s \$0rate;
#X obj 296 506 t f b;
#X obj 296 530 *;
#X obj 328 531 samplerate~;
#X obj 328 555 / 1000;
#X obj 296 581 s \$0smp-length;
#X obj 150 183 pack f f \$0;
#X obj 91 268 route float;
#X msg 150 207 \; \$3env \$1 \; \$3phase \$2 \;;
#X obj 63 447 v \$0autostop;
#X obj 95 497 delay;
#X obj 31 353 t b f;
#X obj 95 579 s \$0autostopping;
#X obj 283 313 \$0;
#X msg 283 337 \; \$1env 0 \; \$1phase 0 \; \$1smp-length 0 \; \$1buff const 0 \; \$1rate 0 \;;
#X msg 216 324 0;
#X obj 283 288 t b b;
#X obj 356 483 param \$0length \$0params 0, f 14;
#X obj 562 143 s \$0get-params;
#X obj 579 91 s \$0loop-start;
#X obj 654 116 s \$0range;
#X obj 216 263 spigot;
#X obj 150 97 t a b;
#X obj 63 471 sel 0;
#X obj 150 123 route list float;
#X obj 167 154 s \$0env;
#X obj 139 57 route rec play clear level start end loop speed reverse params loop-start range cutoff, f 87;
#X obj 430 529 param \$0smp-rate \$0params 1, f 16;
#X obj 352 270 param \$0level \$0params 2, f 13;
#X obj 357 228 param \$0start \$0trimstart 0, f 13;
#X obj 404 171 param \$0end \$0params 3, f 11;
#X obj 480 271 param \$0loop \$0params 4, f 12;
#X obj 510 230 param \$0speed \$0params 5, f 13;
#X obj 545 188 param \$0reverse \$0params 6, f 15;
#X obj 669 187 param \$0cutoff \$0params 7, f 14;
#X msg 264 91 \$2;
#X obj 276 156 v \$0last-slice;
#X obj 276 123 * 8;
#X connect 0 0 37 0;
#X connect 1 0 2 0;
#X connect 2 0 3 0;
#X connect 2 0 32 1;
#X connect 3 0 5 0;
#X connect 3 1 6 0;
#X connect 4 0 9 0;
#X connect 4 0 12 0;
#X connect 4 0 28 0;
#X connect 5 0 8 0;
#X connect 5 0 20 0;
#X connect 5 1 4 0;
#X connect 6 0 7 0;
#X connect 6 1 4 1;
#X connect 7 0 8 0;
#X connect 7 0 21 0;
#X connect 9 0 10 0;
#X connect 10 0 11 0;
#X connect 12 0 13 0;
#X connect 12 1 14 0;
#X connect 13 0 16 0;
#X connect 14 0 15 0;
#X connect 15 0 13 1;
#X connect 15 0 38 0;
#X connect 17 0 19 0;
#X connect 18 0 22 0;
#X connect 18 1 1 0;
#X connect 20 0 34 0;
#X connect 21 0 26 0;
#X connect 21 0 23 0;
#X connect 22 0 1 0;
#X connect 22 1 20 0;
#X connect 24 0 25 0;
#X connect 26 0 2 0;
#X connect 27 0 24 0;
#X connect 27 1 32 0;
#X connect 32 0 26 0;
#X connect 33 0 35 0;
#X connect 33 1 32 0;
#X connect 34 1 21 0;
#X connect 35 0 17 0;
#X connect 35 0 46 0;
#X connect 35 1 36 0;
#X connect 37 0 18 0;
#X connect 37 1 33 0;
#X connect 37 2 27 0;
#X connect 37 3 39 0;
#X connect 37 4 40 0;
#X connect 37 5 41 0;
#X connect 37 6 42 0;
#X connect 37 7 43 0;
#X connect 37 8 44 0;
#X connect 37 9 29 0;
#X connect 37 10 30 0;
#X connect 37 11 31 0;
#X connect 37 12 45 0;
#X connect 46 0 48 0;
#X connect 48 0 40 1;
#X connect 48 0 47 0;
#X restore 87 67 pd input;
#X obj 45 184 phasor~;
#X obj 45 276 tabread4~ \$0buff;
#X obj 45 300 *~;
#X obj 45 324 *~;
#X obj 45 405 outlet~;
#X obj 166 333 r \$0level;
#X obj 166 357 lop~ 50;
#X obj 204 279 r \$0env;
#X obj 204 303 lop~ 50;
#X obj 116 178 r \$0phase;
#X obj 287 229 *~;
#X obj 355 280 r \$0autostopping;
#X obj 287 253 env~;
#X obj 287 277 dbtorms;
#X obj 287 328 outlet;
#X obj 478 159 r \$0get-params;
#X obj 478 207 array get \$0params;
#X obj 287 303 change;
#X obj 355 304 b;
#X obj 355 328 outlet;
#X obj 478 324 outlet;
#N canvas 515 184 608 414 range 0;
#X obj 74 68 inlet~;
#X obj 445 92 r \$0loop-start;
#X obj 325 66 r \$0range;
#X obj 122 289 *~;
#X obj 122 319 +~;
#X obj 325 90 clip 0 1;
#X obj 445 117 clip 0 1;
#X obj 325 114 range-limit;
#X obj 271 277 s \$0rate-correction;
#X obj 327 190 sig~;
#X obj 203 59 r \$0start;
#X obj 142 59 r \$0end;
#X obj 33 361 outlet~;
#X obj 122 358 outlet~;
#X obj 33 297 *~;
#X obj 325 153 sig~ 1;
#X obj 33 324 +~;
#X obj 142 83 ++;
#X msg 142 107 1 \$1;
#X obj 142 131 -;
#X obj 142 164 * 1;
#X obj 142 188 sig~ 1;
#X obj 238 110 t b f;
#X obj 215 187 ++;
#X obj 155 221 sig~;
#X connect 0 0 14 0;
#X connect 0 0 3 0;
#X connect 1 0 6 0;
#X connect 2 0 5 0;
#X connect 3 0 4 0;
#X connect 4 0 13 0;
#X connect 5 0 7 0;
#X connect 6 0 7 1;
#X connect 6 0 9 0;
#X connect 6 0 23 1;
#X connect 7 0 15 0;
#X connect 7 0 22 0;
#X connect 9 0 4 1;
#X connect 10 0 17 1;
#X connect 10 0 23 0;
#X connect 11 0 17 0;
#X connect 14 0 16 0;
#X connect 15 0 3 1;
#X connect 16 0 12 0;
#X connect 17 0 18 0;
#X connect 18 0 19 0;
#X connect 19 0 20 0;
#X connect 20 0 21 0;
#X connect 20 0 8 0;
#X connect 21 0 14 1;
#X connect 22 0 17 0;
#X connect 22 1 20 1;
#X connect 23 0 24 0;
#X connect 24 0 16 1;
#X restore 45 210 pd range;
#X obj 45 351 vcf~ 1, f 9;
#N canvas 64 64 450 300 init 0;
#X obj 213 55 loadbang;
#X obj 213 79 samplerate~;
#X obj 213 103 * 30;
#X obj 213 127 array size \$0buff;
#X obj 67 203 outlet;
#X msg 67 179 cutoff 21000 \, level 1 \, speed 1;
#X connect 0 0 1 0;
#X connect 0 0 5 0;
#X connect 1 0 2 0;
#X connect 2 0 3 0;
#X connect 5 0 4 0;
#X restore 139 32 pd init;
#X obj 157 389 r \$0cutoff;
#X obj 215 105 table \$0params 16;
#X obj 157 415 lop~ 100;
#X obj 45 378 vcf~ 1, f 9;
#N canvas 192 192 504 354 smp-length 0;
#X obj 101 36 inlet~;
#X obj 101 90 *~;
#X obj 101 158 outlet~;
#X obj 174 37 r \$0smp-length;
#X obj 174 61 - 2;
#X obj 101 114 +~ 1;
#X connect 0 0 1 0;
#X connect 1 0 5 0;
#X connect 3 0 4 0;
#X connect 4 0 1 1;
#X connect 5 0 2 0;
#X restore 45 241 pd smp-length;
#X obj 211 133 table \$0trimstart 8;
#X obj 478 183 t b b;
#X obj 510 235 v \$0last-slice;
#X obj 510 260 tabread \$0trimstart;
#X obj 478 293 list append;
#X obj 546 328 s \$0start;
#N canvas 735 328 450 300 rate 0;
#X obj 109 46 r \$0rate;
#X obj 183 59 r \$0rate-correction;
#X obj 183 83 t b f;
#X obj 109 71 / 1;
#X obj 109 147 line~;
#X msg 109 116 \$1 5;
#X obj 109 172 *~;
#X obj 109 197 outlet~;
#X obj 249 130 r \$0speed;
#X msg 249 155 1 \$1;
#X obj 249 180 /;
#X msg 249 205 \$1 5;
#X obj 249 230 line~;
#X connect 0 0 3 0;
#X connect 1 0 2 0;
#X connect 2 0 3 0;
#X connect 2 1 3 1;
#X connect 3 0 5 0;
#X connect 4 0 6 0;
#X connect 5 0 4 0;
#X connect 6 0 7 0;
#X connect 8 0 9 0;
#X connect 9 0 10 0;
#X connect 10 0 11 0;
#X connect 11 0 12 0;
#X connect 12 0 6 1;
#X restore 45 156 pd rate;
#X connect 0 0 1 0;
#X connect 0 1 3 0;
#X connect 3 0 1 0;
#X connect 4 0 25 0;
#X connect 5 0 6 0;
#X connect 6 0 7 0;
#X connect 7 0 26 0;
#X connect 9 0 10 0;
#X connect 10 0 7 1;
#X connect 11 0 12 0;
#X connect 12 0 6 1;
#X connect 12 0 14 1;
#X connect 13 0 4 1;
#X connect 14 0 16 0;
#X connect 15 0 22 0;
#X connect 16 0 17 0;
#X connect 17 0 21 0;
#X connect 19 0 34 0;
#X connect 20 0 37 0;
#X connect 21 0 18 0;
#X connect 22 0 23 0;
#X connect 25 0 32 0;
#X connect 25 1 14 0;
#X connect 26 0 31 0;
#X connect 27 0 3 0;
#X connect 28 0 30 0;
#X connect 30 0 26 1;
#X connect 30 0 31 1;
#X connect 31 0 8 0;
#X connect 32 0 5 0;
#X connect 34 0 20 0;
#X connect 34 1 35 0;
#X connect 35 0 36 0;
#X connect 36 0 37 1;
#X connect 36 0 38 0;
#X connect 37 0 24 0;
#X connect 39 0 4 0;
