#N canvas 960 81 697 725 12;
#X obj 464 82 table state 8;
#X obj 464 106 table note-map 8;
#X obj 464 130 table punch-map 8;
#X obj 474 158 loadbang;
#X text 558 344 0: empty \; 1: stopped \; 2: cue rec \; 3: recording \; 4: playing \;;
#X msg 486 241 2 4 0 4 4;
#X obj 486 265 array set note-map;
#X obj 474 315 array set punch-map;
#X msg 474 291 -1 -1 3 4 -1;
#X obj 152 100 set-state state note-map, f 9;
#X obj 97 183 list prepend;
#X obj 120 74 t f f;
#X obj 120 155 list prepend;
#X obj 250 36 r punch-in;
#X obj 250 60 num-seq 8;
#X obj 250 84 t f f;
#X obj 250 108 set-state state punch-map, f 9;
#X obj 250 160 pack, f 5;
#X msg 250 184 \$1 \$2 -1;
#X msg 162 304 \$1 clear;
#X obj 366 410 set-col;
#X msg 391 380 \$1 0;
#X msg 174 329 \$1 play 0;
#X msg 377 326 \$1 4;
#X msg 366 299 \$1 3;
#X msg 194 357 \$1 rec;
#X msg 208 383 \$2 \$1;
#X obj 208 407 route -1;
#X obj 534 477 bng 19 250 50 0 empty empty empty 0 -10 0 12 #fcfcfc #000000 #000000;
#X obj 534 501 s punch-in;
#N canvas 32 32 525 736 play 0;
#X obj 137 151 inlet;
#X obj 137 175 unpack;
#X text 189 153 [row \, column];
#X obj 114 259 num-seq 8;
#X obj 114 311 * 8;
#X obj 114 335 +, f 5;
#X obj 153 386 tabread pressed;
#X obj 91 221 t f b f;
#X obj 114 361 select;
#X obj 205 240 * 8;
#X obj 205 264 +;
#X obj 91 453 -, f 4;
#X obj 153 410 pack;
#X obj 114 285 t f f, f 7;
#X obj 153 434 route 1;
#X obj 91 477 sel 0;
#X obj 210 636 outlet;
#X obj 309 338 / 8;
#X obj 123 516 + 1;
#X obj 123 540 / 8;
#X obj 123 564 pack f f;
#X obj 342 357 pack;
#X obj 312 496 list;
#X text 23 23 receives [row \, column] \, reads table "pressed" 7 times \, skipping the row currently being processed \; if no other row is pressed \, defaults play range at 1/8 and start position at current row \; if a previous row is pressed \, calculate difference and doesn't retrigger play \, only set range based on diff \; player should be able to interpret negative ranges as reverse playing \;, f 55;
#X msg 312 568 \$2 play 1 0 \, \$2 loop-start \$1 \, \$2 range 0.125, f 18;
#X msg 123 588 \$2 range \$1 \, \$2 play 1 0, f 12;
#X connect 0 0 1 0;
#X connect 1 0 7 0;
#X connect 1 1 5 1;
#X connect 1 1 10 1;
#X connect 1 1 21 1;
#X connect 1 1 20 1;
#X connect 3 0 13 0;
#X connect 4 0 5 0;
#X connect 5 0 8 0;
#X connect 6 0 12 0;
#X connect 7 0 11 0;
#X connect 7 1 3 0;
#X connect 7 2 9 0;
#X connect 7 2 11 1;
#X connect 7 2 17 0;
#X connect 8 1 6 0;
#X connect 9 0 10 0;
#X connect 10 0 8 1;
#X connect 11 0 15 0;
#X connect 12 0 14 0;
#X connect 13 0 4 0;
#X connect 13 1 12 1;
#X connect 14 0 11 1;
#X connect 15 0 22 0;
#X connect 15 1 18 0;
#X connect 17 0 21 0;
#X connect 18 0 19 0;
#X connect 19 0 20 0;
#X connect 20 0 25 0;
#X connect 21 0 22 1;
#X connect 22 0 24 0;
#X connect 24 0 16 0;
#X connect 25 0 16 0;
#X restore 261 480 pd play;
#X obj 97 47 grid-in;
#X msg 534 542 const 0;
#X obj 534 566 s state;
#N canvas 224 224 450 300 faders 0;
#X obj 39 67 r faders;
#X obj 39 91 unpack;
#X obj 39 192 pack, f 6;
#X obj 78 117 / 127;
#X obj 78 141 * 112;
#X obj 78 165 dbtorms;
#X msg 39 216 \$1 level \$2;
#X obj 39 240 outlet;
#X connect 0 0 1 0;
#X connect 1 0 2 0;
#X connect 1 1 3 0;
#X connect 2 0 6 0;
#X connect 3 0 4 0;
#X connect 4 0 5 0;
#X connect 5 0 2 1;
#X connect 6 0 7 0;
#X restore 328 501 pd faders;
#X msg 208 441 \$1 range 1 \, \$1 loop-start 0 \, \$1 play 1 0, f 28;
#X obj 72 524 adc~ 1;
#X obj 203 580 clone col-light-tracking 8;
#X obj 162 593 *~ 1;
#X obj 162 617 dac~;
#N canvas 126 570 383 271 gui 1;
#N canvas 288 254 683 527 (subpatch) 1;
#X obj 87 306 loadbang;
#X msg 87 330 vis 1;
#X obj 87 354 s pd-gui;
#X obj 52 242 r faders;
#X obj 52 266 route 0 1 2 3 4 5 6 7 8;
#X obj 16 98 vsl 19 110 0 127 0 0 empty empty empty 0 -9 0 12 #fcfcfc #000000 #000000 0 1;
#X obj 40 98 vsl 19 110 0 127 0 0 empty empty empty 0 -9 0 12 #fcfcfc #000000 #000000 0 1;
#X obj 64 98 vsl 19 110 0 127 0 0 empty empty empty 0 -9 0 12 #fcfcfc #000000 #000000 0 1;
#X obj 88 98 vsl 19 110 0 127 0 0 empty empty empty 0 -9 0 12 #fcfcfc #000000 #000000 0 1;
#X obj 113 98 vsl 19 110 0 127 0 0 empty empty empty 0 -9 0 12 #fcfcfc #000000 #000000 0 1;
#X obj 137 98 vsl 19 110 0 127 0 0 empty empty empty 0 -9 0 12 #fcfcfc #000000 #000000 0 1;
#X obj 161 98 vsl 19 110 0 127 0 0 empty empty empty 0 -9 0 12 #fcfcfc #000000 #000000 0 1;
#X obj 185 98 vsl 19 110 0 127 0 0 empty empty empty 0 -9 0 12 #fcfcfc #000000 #000000 0 1;
#X obj 225 98 vsl 19 110 0 127 0 0 empty empty empty 0 -9 0 12 #fcfcfc #000000 #000000 0 1;
#X floatatom 17 70 5 0 0 2 speed gui-speed - 0;
#X obj 217 30 tgl 19 0 empty gui-loop loop 0 -10 0 12 #fcfcfc #000000 #000000 0 1;
#X obj 217 67 tgl 19 0 empty gui-reverse revers 0 -10 0 12 #fcfcfc #000000 #000000 0 1;
#X floatatom 17 34 5 0 0 2 selected gui-selected - 0;
#X msg 506 272 set \$1;
#X msg 330 374 set \$1;
#X msg 378 320 set \$1;
#X msg 408 377 set \$1;
#X msg 434 437 set \$1;
#X obj 506 296 s gui-start;
#X obj 330 398 s gui-end;
#X obj 378 344 s gui-speed;
#X obj 408 401 s gui-loop;
#X obj 434 461 s gui-reverse;
#X msg 494 400 set \$1;
#X obj 494 425 s gui-cutoff;
#X obj 304 450 s gui-selected;
#X obj 304 424 + 1;
#X obj 304 263 unpack f f f f f f f f f f;
#X obj 400 172 list prepend;
#X obj 400 196 s set-params;
#X obj 304 239 r get-params;
#X msg 307 33 start \$1;
#X msg 307 57 end \$1;
#X msg 307 81 speed \$1;
#X msg 417 95 cutoff \$1;
#X msg 307 129 loop \$1;
#X msg 307 153 reverse \$1;
#X obj 161 27 vsl 30 60 0 127 0 0 empty gui-cutoff cutoff 0 -9 0 12 #fcfcfc #000000 #000000 0 1;
#X obj 418 24 / 127;
#X obj 418 48 pow 2;
#X obj 418 72 * 21000;
#X obj 494 327 / 21000;
#X obj 494 351 sqrt;
#X obj 494 375 * 127;
#X obj 81 36 hsl 60 15 0 1 0 0 empty gui-start start -2 -7 0 12 #fcfcfc #000000 #000000 0 1;
#X obj 80 67 hsl 60 15 1 0 0 0 empty gui-end end -2 -7 0 12 #fcfcfc #000000 #000000 0 1;
#X connect 0 0 1 0;
#X connect 1 0 2 0;
#X connect 3 0 4 0;
#X connect 4 0 5 0;
#X connect 4 1 6 0;
#X connect 4 2 7 0;
#X connect 4 3 8 0;
#X connect 4 4 9 0;
#X connect 4 5 10 0;
#X connect 4 6 11 0;
#X connect 4 7 12 0;
#X connect 4 8 13 0;
#X connect 14 0 38 0;
#X connect 15 0 40 0;
#X connect 16 0 41 0;
#X connect 18 0 23 0;
#X connect 19 0 24 0;
#X connect 20 0 25 0;
#X connect 21 0 26 0;
#X connect 22 0 27 0;
#X connect 28 0 29 0;
#X connect 31 0 30 0;
#X connect 32 0 31 0;
#X connect 32 0 33 1;
#X connect 32 4 19 0;
#X connect 32 5 20 0;
#X connect 32 6 21 0;
#X connect 32 7 22 0;
#X connect 32 8 46 0;
#X connect 32 9 18 0;
#X connect 33 0 34 0;
#X connect 35 0 32 0;
#X connect 36 0 33 0;
#X connect 37 0 33 0;
#X connect 38 0 33 0;
#X connect 39 0 33 0;
#X connect 40 0 33 0;
#X connect 41 0 33 0;
#X connect 42 0 43 0;
#X connect 43 0 44 0;
#X connect 44 0 45 0;
#X connect 45 0 39 0;
#X connect 46 0 47 0;
#X connect 47 0 48 0;
#X connect 48 0 28 0;
#X connect 49 0 36 0;
#X connect 50 0 37 0;
#X coords 0 1 100 -1 261 221 1 5 5;
#X restore 49 22 graph;
#X restore 464 26 pd gui;
#X msg 65 455 \$1 params;
#X obj 474 210 bng 19 250 50 0 empty empty empty 0 -10 0 12 #fcfcfc #000000 #000000;
#X obj 483 183 r restore-mapping;
#N canvas 128 128 450 391 modifiers 0;
#X obj 32 28 notein;
#X obj 32 52 stripnote;
#X obj 32 76 sel 82;
#X obj 32 190 tgl 19 0 empty empty empty 0 -10 0 12 #fcfcfc #000000 #000000 0 1;
#X obj 32 214 sel 1 0;
#X msg 32 302 82 2;
#X obj 52 333 noteout;
#X msg 86 300 82 0;
#X obj 44 272 array set note-map;
#X msg 39 164 0;
#X obj 130 300 s restore-mapping;
#X obj 201 34 r reset-mods;
#X msg 44 248 2 1 0 1 1;
#X obj 99 124 spigot;
#X connect 0 0 1 0;
#X connect 0 1 1 1;
#X connect 1 0 2 0;
#X connect 2 0 3 0;
#X connect 3 0 4 0;
#X connect 3 0 13 1;
#X connect 4 0 5 0;
#X connect 4 0 12 0;
#X connect 4 1 7 0;
#X connect 4 1 10 0;
#X connect 5 0 6 0;
#X connect 7 0 6 0;
#X connect 9 0 3 0;
#X connect 11 0 13 0;
#X connect 12 0 8 0;
#X connect 13 0 9 0;
#X restore 464 50 pd modifiers;
#X obj 169 220 t b a;
#X obj 101 267 s reset-mods;
#N canvas 160 160 450 300 stop-light 0;
#X obj 74 36 inlet;
#X obj 74 114 t f f;
#X msg 141 154 \$1 0;
#X obj 141 178 set-col;
#X msg 74 155 \$1 1;
#X obj 74 179 noteout;
#X msg 74 60 \$1;
#X obj 74 86 pipe 50;
#X connect 0 0 6 0;
#X connect 1 0 4 0;
#X connect 1 1 2 0;
#X connect 2 0 3 0;
#X connect 4 0 5 0;
#X connect 6 0 7 0;
#X connect 7 0 1 0;
#X restore 387 352 pd stop-light;
#X obj 162 529 clone loop-track 8;
#X obj 241 261 route 0 1 2 3 4;
#X obj 285 554 s get-params;
#X obj 49 486 r set-params;
#X connect 3 0 42 0;
#X connect 5 0 6 0;
#X connect 8 0 7 0;
#X connect 9 0 12 1;
#X connect 10 0 45 0;
#X connect 11 0 12 0;
#X connect 11 0 41 0;
#X connect 11 1 9 0;
#X connect 12 0 10 1;
#X connect 13 0 14 0;
#X connect 14 0 15 0;
#X connect 15 0 16 0;
#X connect 15 1 17 1;
#X connect 16 0 17 0;
#X connect 17 0 18 0;
#X connect 18 0 45 0;
#X connect 19 0 48 0;
#X connect 21 0 20 0;
#X connect 22 0 48 0;
#X connect 23 0 20 0;
#X connect 24 0 20 0;
#X connect 25 0 48 0;
#X connect 26 0 27 0;
#X connect 27 0 35 0;
#X connect 27 1 30 0;
#X connect 28 0 29 0;
#X connect 30 0 48 0;
#X connect 31 0 10 0;
#X connect 31 1 11 0;
#X connect 32 0 33 0;
#X connect 34 0 48 0;
#X connect 35 0 48 0;
#X connect 36 0 48 0;
#X connect 38 0 39 0;
#X connect 38 0 39 1;
#X connect 41 0 48 0;
#X connect 42 0 5 0;
#X connect 42 0 8 0;
#X connect 43 0 42 0;
#X connect 45 0 46 0;
#X connect 45 1 49 0;
#X connect 48 0 38 0;
#X connect 48 1 37 0;
#X connect 48 3 50 0;
#X connect 49 0 19 0;
#X connect 49 0 21 0;
#X connect 49 1 22 0;
#X connect 49 1 47 0;
#X connect 49 2 23 0;
#X connect 49 3 25 0;
#X connect 49 3 24 0;
#X connect 49 4 26 0;
#X connect 49 4 21 0;
#X connect 51 0 48 0;
