#N canvas 685 225 450 631 12;
#X obj 67 467 output~;
#X obj 305 40 gui/rand-seq;
#X obj 331 171 rand-seq~;
#X obj 299 67 gui/rand-seq;
#X obj 32 43 adc~ 1;
#X obj 316 112 r gui-1015;
#X obj 38 170 expr~ atan($v1);
#X obj 70 217 vcf~ 0.8;
#X obj 217 222 hsl 162 19 0 127 0 0 empty empty empty -2 -10 0 12 #fcfcfc #000000 #000000 0 1;
#X obj 214 246 mtof;
#X obj 214 270 lop~ 3;
#X obj 69 306 vcf~ 0.8;
#N canvas 160 160 450 429 ch 0;
#X obj 225 59 phasor~ 0.6;
#X obj 225 93 *~ 2;
#X obj 225 117 -~ 1;
#X obj 265 93 *~ -2;
#X obj 265 117 +~ 1;
#X obj 225 141 max~;
#X obj 225 165 *~ 6;
#X obj 225 189 +~ 6;
#X obj 225 213 delread4~ ch;
#X obj 51 71 inlet~;
#X obj 54 300 outlet~;
#X obj 85 194 delwrite~ ch 100;
#X connect 0 0 1 0;
#X connect 0 0 3 0;
#X connect 1 0 2 0;
#X connect 2 0 5 0;
#X connect 3 0 4 0;
#X connect 4 0 5 1;
#X connect 5 0 6 0;
#X connect 6 0 7 0;
#X connect 7 0 8 0;
#X connect 8 0 10 0;
#X connect 9 0 11 0;
#X restore 130 347 pd ch;
#X floatatom 110 99 5 0 0 0 - - - 0;
#X obj 109 129 lop~ 2;
#X obj 27 132 *~;
#X obj 132 399 rev3~ 97 90;
#X floatatom 232 343 5 0 0 0 - - - 0;
#X obj 127 262 modulate~;
#X obj 158 34 env~;
#X obj 192 161 * 2;
#X floatatom 220 133 5 0 0 0 - - - 0;
#X obj 158 58 dbtorms;
#X obj 158 82 pow 2;
#X obj 172 189 lop~ 50;
#X connect 4 0 15 0;
#X connect 4 0 19 0;
#X connect 5 0 2 0;
#X connect 6 0 7 0;
#X connect 7 0 11 0;
#X connect 7 1 11 0;
#X connect 8 0 9 0;
#X connect 9 0 10 0;
#X connect 10 0 18 0;
#X connect 11 0 0 0;
#X connect 11 0 12 0;
#X connect 11 0 0 1;
#X connect 12 0 16 0;
#X connect 13 0 14 0;
#X connect 14 0 15 1;
#X connect 15 0 6 0;
#X connect 16 0 0 0;
#X connect 16 1 0 1;
#X connect 17 0 7 2;
#X connect 17 0 11 2;
#X connect 18 0 7 1;
#X connect 18 0 11 1;
#X connect 19 0 22 0;
#X connect 20 0 24 0;
#X connect 21 0 20 1;
#X connect 22 0 23 0;
#X connect 23 0 20 0;
#X connect 24 0 18 1;
