#N canvas 224 224 450 300 12;
#X obj 153 48 inlet~;
#X obj 153 142 +~;
#X obj 153 166 outlet~;
#X obj 172 111 *~;
#X obj 208 73 inlet~;
#X connect 0 0 1 0;
#X connect 0 0 3 0;
#X connect 1 0 2 0;
#X connect 3 0 1 1;
#X connect 4 0 3 1;
