#N canvas 128 128 450 300 12;
#X obj 124 26 inlet;
#X obj 124 130 +;
#X obj 124 154 outlet;
#X obj 124 80 t f f;
#X obj 204 37 inlet;
#X obj 156 107 *;
#X obj 204 61 t b f;
#X obj 124 53 f;
#X connect 0 0 7 0;
#X connect 1 0 2 0;
#X connect 3 0 1 0;
#X connect 3 1 5 0;
#X connect 4 0 6 0;
#X connect 5 0 1 1;
#X connect 6 0 7 0;
#X connect 6 1 5 1;
#X connect 7 0 3 0;
