#N canvas 224 224 450 424 12;
#X obj 103 36 inlet;
#X obj 103 204 128;
#X obj 103 228 until;
#X obj 103 272 f;
#X obj 153 291 + 1;
#X obj 103 160 t b b;
#X msg 169 213 0;
#X obj 255 153 loadbang;
#X msg 255 177 args;
#X obj 255 201 pdcontrol;
#X obj 255 225 route float;
#X obj 103 326 outlet;
#X obj 103 72 route float;
#X obj 103 96 t b f;
#X connect 0 0 12 0;
#X connect 1 0 2 0;
#X connect 2 0 3 0;
#X connect 3 0 4 0;
#X connect 3 0 11 0;
#X connect 4 0 3 1;
#X connect 5 0 1 0;
#X connect 5 1 6 0;
#X connect 6 0 3 1;
#X connect 7 0 8 0;
#X connect 8 0 9 0;
#X connect 9 0 10 0;
#X connect 10 0 1 1;
#X connect 12 0 13 0;
#X connect 12 1 5 0;
#X connect 13 0 5 0;
#X connect 13 1 1 1;
