#N canvas 904 64 450 300 12;
#X obj 77 45 inlet;
#X obj 77 70 t b b;
#X msg 128 125 0;
#X obj 77 95 128;
#X obj 77 120 until;
#X obj 77 145 f;
#X obj 135 165 + 1;
#X obj 222 51 loadbang;
#X msg 222 76 args;
#X obj 222 101 pdcontrol;
#X obj 222 126 route float;
#X obj 77 170 outlet;
#X connect 0 0 1 0;
#X connect 1 0 3 0;
#X connect 1 1 2 0;
#X connect 2 0 5 1;
#X connect 3 0 4 0;
#X connect 4 0 5 0;
#X connect 5 0 6 0;
#X connect 5 0 11 0;
#X connect 6 0 5 1;
#X connect 7 0 8 0;
#X connect 8 0 9 0;
#X connect 9 0 10 0;
#X connect 10 0 3 1;
