#N canvas 192 192 450 300 12;
#X obj 103 36 inlet~;
#X obj 225 25 loadbang;
#X obj 225 49 metro 30;
#X obj 103 60 snapshot~;
#X floatatom 103 104 9 0 0 0 - - - 0;
#X connect 0 0 3 0;
#X connect 1 0 2 0;
#X connect 2 0 3 0;
#X connect 3 0 4 0;
#X coords 0 -1 1 1 71 26 2 100 100;
