#N canvas 735 328 450 300 12;
#X obj 95 86 inlet;
#X obj 95 111 route \$1;
#X obj 95 136 unpack s f;
#X obj 95 161 f;
#X obj 95 186 pack f f;
#X obj 95 211 outlet;
#X connect 0 0 1 0;
#X connect 1 0 2 0;
#X connect 2 0 3 0;
#X connect 2 1 4 1;
#X connect 3 0 4 0;
#X connect 4 0 5 0;
