#N canvas 192 192 450 300 12;
#X obj 96 80 inlet;
#X obj 96 104 route float;
#X obj 96 128 t f b;
#X obj 96 213 s \$1;
#X obj 111 186 tabwrite \$2;
#X obj 185 158 \$3;
#X obj 286 165 inlet;
#X text 29 26 arguments: param name (send) \, param table name \, index \; 2nd param set param table index \;;
#X connect 0 0 1 0;
#X connect 1 0 2 0;
#X connect 2 0 3 0;
#X connect 2 0 4 0;
#X connect 2 1 5 0;
#X connect 5 0 4 1;
#X connect 6 0 4 1;
