#N canvas 735 328 549 452 12;
#X obj 184 52 table \$0wavetable 1024;
#X obj 60 67 inlet~;
#X obj 99 97 route seed steps speed max min;
#X obj 32 170 sig~;
#X obj 32 195 modulate~;
#X obj 32 220 phasor~;
#X obj 32 245 *~ 1024;
#X obj 32 270 tabread~ \$0wavetable;
#X obj 32 365 outlet~;
#X obj 327 237 t b f;
#X msg 283 301 seed \$1;
#X obj 283 326 noise~;
#X obj 283 351 samphold~;
#X obj 283 376 tabwrite~ \$0wavetable;
#X obj 396 272 samplerate~;
#X obj 396 297 / 1024;
#X obj 396 322 * 16;
#X obj 396 347 phasor~;
#X msg 349 301 0;
#X obj 406 227 t b b f;
#X connect 1 0 4 1;
#X connect 1 1 2 0;
#X connect 2 0 9 0;
#X connect 2 1 19 0;
#X connect 2 2 3 0;
#X connect 3 0 4 0;
#X connect 4 0 5 0;
#X connect 5 0 6 0;
#X connect 6 0 7 0;
#X connect 7 0 8 0;
#X connect 9 0 18 0;
#X connect 9 0 13 0;
#X connect 9 1 10 0;
#X connect 10 0 11 0;
#X connect 11 0 12 0;
#X connect 12 0 13 0;
#X connect 14 0 15 0;
#X connect 15 0 16 0;
#X connect 16 0 17 0;
#X connect 17 0 12 1;
#X connect 18 0 17 1;
#X connect 19 0 9 0;
#X connect 19 1 14 0;
#X connect 19 2 16 1;
