#N canvas 64 64 450 300 12;
#X obj 175 130 t f f;
#X obj 175 86 inlet;
#X obj 248 86 inlet;
#X obj 175 183 outlet;
#X obj 248 126 ++;
#X obj 248 150 - 1;
#X obj 248 174 max 0;
#X obj 175 154 --;
#X connect 0 0 7 0;
#X connect 0 1 4 1;
#X connect 1 0 0 0;
#X connect 2 0 4 0;
#X connect 4 0 5 0;
#X connect 5 0 6 0;
#X connect 6 0 7 1;
#X connect 7 0 3 0;
