#N canvas 63 81 465 367 12;
#X obj 111 72 inlet;
#X obj 111 96 route float;
#X obj 111 120 t f f;
#X obj 111 192 moses;
#X obj 111 168 tabread \$2;
#X obj 111 144 tabread \$1;
#X text 45 31 arguments: state table \, transition map table;
#X obj 143 279 outlet;
#X obj 143 219 t f f;
#X obj 175 248 tabwrite \$1;
#X connect 0 0 1 0;
#X connect 1 0 2 0;
#X connect 2 0 5 0;
#X connect 2 1 9 1;
#X connect 3 1 8 0;
#X connect 4 0 3 0;
#X connect 5 0 4 0;
#X connect 8 0 7 0;
#X connect 8 1 9 0;
