#N canvas 96 96 450 300 12;
#X text 36 20 arguments: list of [column \, value];
#X obj 182 52 inlet;
#X obj 182 76 unpack;
#X obj 182 111 t b f;
#X obj 182 135 num-seq 8;
#X obj 182 159 * 8;
#X obj 182 183 +, f 5;
#X obj 182 210 pack, f 6;
#X obj 182 234 noteout;
#X connect 1 0 2 0;
#X connect 2 0 3 0;
#X connect 2 1 7 1;
#X connect 3 0 4 0;
#X connect 3 1 6 1;
#X connect 4 0 5 0;
#X connect 5 0 6 0;
#X connect 6 0 7 0;
#X connect 7 0 8 0;
