#N canvas 775 349 450 300 12;
#X obj 196 88 inlet;
#X obj 196 113 route float;
#X obj 196 138 t b f;
#X obj 196 188 f;
#X obj 196 213 outlet;
#X obj 196 163 delay 30;
#X connect 0 0 1 0;
#X connect 1 0 2 0;
#X connect 2 0 5 0;
#X connect 2 1 3 1;
#X connect 3 0 4 0;
#X connect 5 0 3 0;
