#N canvas 312 342 335 180 12;
#N canvas 735 353 450 250 (subpatch) 0;
#X floatatom 15 37 9 0 0 2 rate - - 0;
#X floatatom 15 75 5 0 0 2 max - - 0;
#X floatatom 58 75 5 0 0 2 min - - 0;
#X obj 16 113 hradio 20 1 0 5 empty empty waveform 0 -10 0 12 #fcfcfc #000000 #000000 0;
#X msg 178 82 rate \$1;
#X msg 178 107 max \$1;
#X msg 178 132 min \$1;
#X msg 178 157 waveform \$1;
#X obj 226 201 send gui-\$0;
#X floatatom 103 14 5 0 0 0 gui- - - 0;
#X obj 172 30 loadbang;
#X obj 172 55 \$0;
#X obj 99 74 bng 20 250 50 0 empty empty reset 0 -10 0 12 #fcfcfc #000000 #000000;
#X msg 296 60 reset;
#X connect 0 0 4 0;
#X connect 1 0 5 0;
#X connect 2 0 6 0;
#X connect 3 0 7 0;
#X connect 4 0 8 0;
#X connect 5 0 8 0;
#X connect 6 0 8 0;
#X connect 7 0 8 0;
#X connect 10 0 11 0;
#X connect 11 0 9 0;
#X connect 12 0 13 0;
#X connect 13 0 8 0;
#X coords 0 1 100 -1 134 129 1 10 10;
#X restore 96 24 graph;
