#N canvas 96 96 377 168 12;
#N canvas 128 128 540 289 (subpatch) 0;
#X floatatom 19 57 5 0 0 2 rate - - 0;
#X msg 71 153 rate \$1;
#X floatatom 86 57 5 0 0 2 min - - 0;
#X floatatom 134 57 5 0 0 2 max - - 0;
#X floatatom 19 92 8 0 0 2 seed - - 0;
#X floatatom 86 92 5 0 0 2 steps - - 0;
#X floatatom 134 92 5 0 0 2 function - - 0;
#X msg 151 153 min \$1;
#X msg 241 153 max \$1;
#X msg 71 183 seed \$1;
#X msg 151 183 steps \$1;
#X msg 241 183 function \$1;
#X obj 161 227 s gui-\$0;
#X floatatom 134 22 5 0 0 0 gui- - - 0;
#X obj 239 34 loadbang;
#X obj 239 58 \$0;
#X connect 0 0 1 0;
#X connect 1 0 12 0;
#X connect 2 0 7 0;
#X connect 3 0 8 0;
#X connect 4 0 9 0;
#X connect 5 0 10 0;
#X connect 6 0 11 0;
#X connect 7 0 12 0;
#X connect 8 0 12 0;
#X connect 9 0 12 0;
#X connect 10 0 12 0;
#X connect 11 0 12 0;
#X connect 14 0 15 0;
#X connect 15 0 13 0;
#X coords 0 1 100 -1 181 112 1 10 10;
#X restore 67 21 graph;
