#N canvas 221 92 583 577 12;
#X obj 28 21 lib/receive-osc;
#X obj 28 307 lib/osc-addr buttons;
#X obj 23 402 sel 1;
#X obj 305 268 osc~ 500;
#X obj 288 360 dac~ 1;
#X obj 462 78 loadbang;
#X msg 462 103 \; pd dsp 1;
#X obj 279 44 lib/osc-addr encoders;
#X obj 122 153 lib/accum 100;
#X obj 120 181 / 100;
#X obj 232 288 lop~ 5;
#X obj 288 314 *~;
#X obj 279 69 route 1 2 3 4;
#X obj 292 123 lib/accum 127;
#X obj 292 148 mtof;
#X obj 292 173 lop~ 10;
#X obj 28 332 route 1 2;
#X obj 265 420 noise~;
#X obj 265 445 tabwrite~ arr1;
#X obj 200 425 t b b;
#X obj 188 480 array get arr1;
#X obj 188 505 list prepend noiz;
#X obj 188 530 lib/osc-client buffer;
#X obj 169 373 sel 1;
#X obj 23 454 lib/osc-client navigate, f 14;
#X msg 23 427 home;
#X obj 404 276 loadbang;
#X obj 404 301 delay 2000;
#X obj 376 438 table arr1 16;
#X connect 0 0 1 0;
#X connect 0 0 7 0;
#X connect 1 0 16 0;
#X connect 2 0 25 0;
#X connect 3 0 11 1;
#X connect 5 0 6 0;
#X connect 7 0 12 0;
#X connect 8 0 9 0;
#X connect 9 0 10 0;
#X connect 10 0 11 0;
#X connect 11 0 4 0;
#X connect 12 0 8 0;
#X connect 12 1 13 0;
#X connect 13 0 14 0;
#X connect 14 0 15 0;
#X connect 15 0 3 0;
#X connect 16 0 2 0;
#X connect 16 1 23 0;
#X connect 17 0 18 0;
#X connect 19 0 20 0;
#X connect 19 1 18 0;
#X connect 20 0 21 0;
#X connect 21 0 22 0;
#X connect 23 0 19 0;
#X connect 25 0 24 0;
#X connect 26 0 27 0;
#X connect 27 0 19 0;
